<?xml version="1.0" encoding="iso-8859-1"?>
<!-- Generator: Adobe Illustrator 19.0.0, SVG Export Plug-In . SVG Version: 6.00 Build 0)  -->
<svg version="1.1" id="Capa_1" xmlns="http://www.w3.org/2000/svg" xmlns:xlink="http://www.w3.org/1999/xlink" x="0px" y="0px"
	 viewBox="0 0 512.023 512.023" style="enable-background:new 0 0 512.023 512.023;" xml:space="preserve">
<path style="fill:#2196F3;" d="M472.417,64.449l-213.333-64c-1.997-0.598-4.126-0.598-6.123,0l-213.333,64
	c-4.518,1.349-7.615,5.504-7.616,10.219v234.667c0,94.315,143.829,178.219,220.843,202.197c2.083,0.655,4.317,0.655,6.4,0
	c76.928-23.979,220.757-107.883,220.757-202.197V74.667C480.013,69.958,476.926,65.805,472.417,64.449z"/>
<path style="fill:#FAFAFA;" d="M234.678,341.334c-2.831,0.005-5.548-1.115-7.552-3.115l-85.333-85.333
	c-4.092-4.237-3.975-10.99,0.262-15.083c4.134-3.992,10.687-3.992,14.82,0l77.803,77.781l141.781-141.781
	c4.093-4.237,10.845-4.355,15.083-0.262c4.237,4.093,4.354,10.845,0.262,15.083c-0.086,0.089-0.173,0.176-0.262,0.262
	L242.209,338.219C240.21,340.213,237.502,341.333,234.678,341.334z"/>
<g>
</g>
<g>
</g>
<g>
</g>
<g>
</g>
<g>
</g>
<g>
</g>
<g>
</g>
<g>
</g>
<g>
</g>
<g>
</g>
<g>
</g>
<g>
</g>
<g>
</g>
<g>
</g>
<g>
</g>
</svg>
